<?xml version="1.0" encoding="UTF-8" standalone="no"?>
<!DOCTYPE svg PUBLIC "-//W3C//DTD SVG 1.1//EN"
 "http://www.w3.org/Graphics/SVG/1.1/DTD/svg11.dtd">
<!-- Generated by graphviz version 2.38.0 (20140413.2041)
 -->
<!-- Title: G Pages: 1 -->
<svg width="832pt" height="584pt"
 viewBox="0.00 0.00 832.49 584.00" xmlns="http://www.w3.org/2000/svg" xmlns:xlink="http://www.w3.org/1999/xlink">
<g id="graph0" class="graph" transform="scale(1 1) rotate(0) translate(4 580)">
<title>G</title>
<polygon fill="white" stroke="none" points="-4,4 -4,-580 828.491,-580 828.491,4 -4,4"/>
<g id="clust1" class="cluster"><title>cluster_Global</title>
<path fill="none" stroke="gray" d="M149.491,-8C149.491,-8 804.491,-8 804.491,-8 810.491,-8 816.491,-14 816.491,-20 816.491,-20 816.491,-556 816.491,-556 816.491,-562 810.491,-568 804.491,-568 804.491,-568 149.491,-568 149.491,-568 143.491,-568 137.491,-562 137.491,-556 137.491,-556 137.491,-20 137.491,-20 137.491,-14 143.491,-8 149.491,-8"/>
<text text-anchor="middle" x="476.991" y="-555.2" font-family="Times,serif" font-size="11.00" fill="gray">Global</text>
</g>
<g id="clust2" class="cluster"><title>cluster_\it</title>
<path fill="none" stroke="gray" d="M157.491,-16C157.491,-16 796.491,-16 796.491,-16 802.491,-16 808.491,-22 808.491,-28 808.491,-28 808.491,-528 808.491,-528 808.491,-534 802.491,-540 796.491,-540 796.491,-540 157.491,-540 157.491,-540 151.491,-540 145.491,-534 145.491,-528 145.491,-528 145.491,-28 145.491,-28 145.491,-22 151.491,-16 157.491,-16"/>
<text text-anchor="middle" x="476.991" y="-527.2" font-family="Times,serif" font-size="11.00" fill="gray">it</text>
</g>
<g id="clust3" class="cluster"><title>cluster_\it\thecsea</title>
<path fill="none" stroke="gray" d="M165.491,-24C165.491,-24 788.491,-24 788.491,-24 794.491,-24 800.491,-30 800.491,-36 800.491,-36 800.491,-500 800.491,-500 800.491,-506 794.491,-512 788.491,-512 788.491,-512 165.491,-512 165.491,-512 159.491,-512 153.491,-506 153.491,-500 153.491,-500 153.491,-36 153.491,-36 153.491,-30 159.491,-24 165.491,-24"/>
<text text-anchor="middle" x="476.991" y="-499.2" font-family="Times,serif" font-size="11.00" fill="gray">thecsea</text>
</g>
<g id="clust4" class="cluster"><title>cluster_\it\thecsea\mysqltcs</title>
<path fill="none" stroke="gray" d="M173.491,-32C173.491,-32 780.491,-32 780.491,-32 786.491,-32 792.491,-38 792.491,-44 792.491,-44 792.491,-472 792.491,-472 792.491,-478 786.491,-484 780.491,-484 780.491,-484 173.491,-484 173.491,-484 167.491,-484 161.491,-478 161.491,-472 161.491,-472 161.491,-44 161.491,-44 161.491,-38 167.491,-32 173.491,-32"/>
<text text-anchor="middle" x="476.991" y="-471.2" font-family="Times,serif" font-size="11.00" fill="gray">mysqltcs</text>
</g>
<g id="clust5" class="cluster"><title>cluster_\it\thecsea\mysqltcs\connections</title>
<path fill="none" stroke="gray" d="M376.491,-194C376.491,-194 772.491,-194 772.491,-194 778.491,-194 784.491,-200 784.491,-206 784.491,-206 784.491,-444 784.491,-444 784.491,-450 778.491,-456 772.491,-456 772.491,-456 376.491,-456 376.491,-456 370.491,-456 364.491,-450 364.491,-444 364.491,-444 364.491,-206 364.491,-206 364.491,-200 370.491,-194 376.491,-194"/>
<text text-anchor="middle" x="574.491" y="-443.2" font-family="Times,serif" font-size="11.00" fill="gray">connections</text>
</g>
<g id="clust6" class="cluster"><title>cluster_\it\thecsea\mysqltcs\connections\utils</title>
<path fill="none" stroke="gray" d="M627.491,-302C627.491,-302 764.491,-302 764.491,-302 770.491,-302 776.491,-308 776.491,-314 776.491,-314 776.491,-416 776.491,-416 776.491,-422 770.491,-428 764.491,-428 764.491,-428 627.491,-428 627.491,-428 621.491,-428 615.491,-422 615.491,-416 615.491,-416 615.491,-314 615.491,-314 615.491,-308 621.491,-302 627.491,-302"/>
<text text-anchor="middle" x="695.991" y="-415.2" font-family="Times,serif" font-size="11.00" fill="gray">utils</text>
</g>
<!-- \\it\\thecsea\\mysqltcs\\connections\\utils\\MysqlUtils -->
<g id="node1" class="node"><title>\\it\\thecsea\\mysqltcs\\connections\\utils\\MysqlUtils</title>
<polygon fill="none" stroke="black" points="737.991,-400 653.991,-400 653.991,-364 737.991,-364 737.991,-400"/>
<text text-anchor="middle" x="695.991" y="-379.2" font-family="Courier,monospace" font-size="11.00">MysqlUtils</text>
</g>
<!-- \\it\\thecsea\\mysqltcs\\connections\\utils\\MysqlUtilsException -->
<g id="node2" class="node"><title>\\it\\thecsea\\mysqltcs\\connections\\utils\\MysqlUtilsException</title>
<polygon fill="none" stroke="black" points="768.491,-346 623.491,-346 623.491,-310 768.491,-310 768.491,-346"/>
<text text-anchor="middle" x="695.991" y="-325.2" font-family="Courier,monospace" font-size="11.00">MysqlUtilsException</text>
</g>
<!-- \\it\\thecsea\\mysqltcs\\connections\\MysqlConnectionException -->
<g id="node4" class="node"><title>\\it\\thecsea\\mysqltcs\\connections\\MysqlConnectionException</title>
<polygon fill="none" stroke="black" points="551.491,-346 372.491,-346 372.491,-310 551.491,-310 551.491,-346"/>
<text text-anchor="middle" x="461.991" y="-325.2" font-family="Courier,monospace" font-size="11.00">MysqlConnectionException</text>
</g>
<!-- \\it\\thecsea\\mysqltcs\\connections\\utils\\MysqlUtilsException&#45;&gt;\\it\\thecsea\\mysqltcs\\connections\\MysqlConnectionException -->
<g id="edge3" class="edge"><title>\\it\\thecsea\\mysqltcs\\connections\\utils\\MysqlUtilsException&#45;&gt;\\it\\thecsea\\mysqltcs\\connections\\MysqlConnectionException</title>
<path fill="none" stroke="black" d="M623.491,-328C604.04,-328 582.622,-328 561.942,-328"/>
<polygon fill="none" stroke="black" points="561.862,-324.5 551.862,-328 561.862,-331.5 561.862,-324.5"/>
</g>
<!-- \\it\\thecsea\\mysqltcs\\connections\\MysqlConnection -->
<g id="node3" class="node"><title>\\it\\thecsea\\mysqltcs\\connections\\MysqlConnection</title>
<polygon fill="none" stroke="black" points="754.991,-292 636.991,-292 636.991,-256 754.991,-256 754.991,-292"/>
<text text-anchor="middle" x="695.991" y="-271.2" font-family="Courier,monospace" font-size="11.00">MysqlConnection</text>
</g>
<!-- \\it\\thecsea\\mysqltcs\\MysqltcsException -->
<g id="node6" class="node"><title>\\it\\thecsea\\mysqltcs\\MysqltcsException</title>
<polygon fill="none" stroke="black" points="300.491,-346 169.491,-346 169.491,-310 300.491,-310 300.491,-346"/>
<text text-anchor="middle" x="234.991" y="-325.2" font-family="Courier,monospace" font-size="11.00">MysqltcsException</text>
</g>
<!-- \\it\\thecsea\\mysqltcs\\connections\\MysqlConnectionException&#45;&gt;\\it\\thecsea\\mysqltcs\\MysqltcsException -->
<g id="edge2" class="edge"><title>\\it\\thecsea\\mysqltcs\\connections\\MysqlConnectionException&#45;&gt;\\it\\thecsea\\mysqltcs\\MysqltcsException</title>
<path fill="none" stroke="black" d="M372.388,-328C351.968,-328 330.446,-328 310.685,-328"/>
<polygon fill="none" stroke="black" points="310.527,-324.5 300.527,-328 310.527,-331.5 310.527,-324.5"/>
</g>
<!-- \\it\\thecsea\\mysqltcs\\connections\\MysqlConnections -->
<g id="node5" class="node"><title>\\it\\thecsea\\mysqltcs\\connections\\MysqlConnections</title>
<polygon fill="none" stroke="black" points="758.491,-238 633.491,-238 633.491,-202 758.491,-202 758.491,-238"/>
<text text-anchor="middle" x="695.991" y="-217.2" font-family="Courier,monospace" font-size="11.00">MysqlConnections</text>
</g>
<!-- \\Exception -->
<g id="node11" class="node"><title>\\Exception</title>
<ellipse fill="none" stroke="black" cx="48.7457" cy="-328" rx="48.9926" ry="18"/>
<text text-anchor="middle" x="48.7457" y="-324.3" font-family="Times,serif" font-size="14.00" fill="gray">\Exception</text>
</g>
<!-- \\it\\thecsea\\mysqltcs\\MysqltcsException&#45;&gt;\\Exception -->
<g id="edge1" class="edge"><title>\\it\\thecsea\\mysqltcs\\MysqltcsException&#45;&gt;\\Exception</title>
<path fill="none" stroke="black" d="M169.292,-328C149.341,-328 127.501,-328 108.01,-328"/>
<polygon fill="none" stroke="black" points="107.753,-324.5 97.7533,-328 107.753,-331.5 107.753,-324.5"/>
</g>
<!-- \\it\\thecsea\\mysqltcs\\Mysqltcs -->
<g id="node7" class="node"><title>\\it\\thecsea\\mysqltcs\\Mysqltcs</title>
<polygon fill="none" stroke="black" points="731.491,-184 660.491,-184 660.491,-148 731.491,-148 731.491,-184"/>
<text text-anchor="middle" x="695.991" y="-163.2" font-family="Courier,monospace" font-size="11.00">Mysqltcs</text>
</g>
<!-- \\it\\thecsea\\mysqltcs\\MysqltcsOperations -->
<g id="node8" class="node"><title>\\it\\thecsea\\mysqltcs\\MysqltcsOperations</title>
<polygon fill="none" stroke="black" points="764.991,-130 626.991,-130 626.991,-94 764.991,-94 764.991,-130"/>
<text text-anchor="middle" x="695.991" y="-109.2" font-family="Courier,monospace" font-size="11.00">MysqltcsOperations</text>
</g>
<!-- \\it\\thecsea\\mysqltcs\\SimpleLogger -->
<g id="node9" class="node"><title>\\it\\thecsea\\mysqltcs\\SimpleLogger</title>
<polygon fill="none" stroke="black" points="744.991,-76 646.991,-76 646.991,-40 744.991,-40 744.991,-76"/>
<text text-anchor="middle" x="695.991" y="-55.2" font-family="Courier,monospace" font-size="11.00">SimpleLogger</text>
</g>
<!-- \\it\\thecsea\\mysqltcs\\MysqltcsLogger -->
<g id="node10" class="node"><title>\\it\\thecsea\\mysqltcs\\MysqltcsLogger</title>
<polygon fill="none" stroke="black" points="517.491,-76 406.491,-76 406.491,-40 517.491,-40 517.491,-76"/>
<text text-anchor="middle" x="461.991" y="-55.2" font-family="Courier,monospace" font-size="11.00">MysqltcsLogger</text>
</g>
<!-- \\it\\thecsea\\mysqltcs\\SimpleLogger&#45;&gt;\\it\\thecsea\\mysqltcs\\MysqltcsLogger -->
<g id="edge4" class="edge"><title>\\it\\thecsea\\mysqltcs\\SimpleLogger&#45;&gt;\\it\\thecsea\\mysqltcs\\MysqltcsLogger</title>
<path fill="none" stroke="black" stroke-dasharray="1,5" d="M646.921,-58C612.467,-58 565.668,-58 527.9,-58"/>
<polygon fill="none" stroke="black" points="527.504,-54.5001 517.504,-58 527.504,-61.5001 527.504,-54.5001"/>
</g>
</g>
</svg>
